<svg xmlns="http://www.w3.org/2000/svg" viewBox="0 0 64 64">
  <defs>
    <linearGradient id="skylive-tab" x1="0%" y1="0%" x2="100%" y2="100%">
      <stop offset="0%" stop-color="#f5f5f5" />
      <stop offset="100%" stop-color="#41414a" />
    </linearGradient>
    <linearGradient id="skylive-sigil" x1="0%" y1="0%" x2="100%" y2="0%">
      <stop offset="0%" stop-color="#ffffff" stop-opacity="0.9" />
      <stop offset="100%" stop-color="#d9d9df" stop-opacity="0.4" />
    </linearGradient>
  </defs>
  <rect width="64" height="64" rx="16" fill="url(#skylive-tab)" />
  <path d="M20 23c0-5.5 4.5-10 10-10h14c1.1 0 2 .9 2 2s-.9 2-2 2H30c-3.3 0-6 2.7-6 6s2.7 6 6 6h4c5.5 0 10 4.5 10 10s-4.5 10-10 10H22c-1.1 0-2-.9-2-2s.9-2 2-2h12c3.3 0 6-2.7 6-6s-2.7-6-6-6h-4c-5.5 0-10-4.5-10-10z" fill="url(#skylive-sigil)" />
</svg>
