<svg xmlns="http://www.w3.org/2000/svg" viewBox="0 0 64 64" role="img" aria-label="Skylive Cinema icon">
  <defs>
    <linearGradient id="skylive-gradient" x1="0%" y1="0%" x2="100%" y2="100%">
      <stop offset="0%" stop-color="#f5f5f5" />
      <stop offset="100%" stop-color="#41414a" />
    </linearGradient>
    <linearGradient id="skylive-glow" x1="0%" y1="0%" x2="100%" y2="0%">
      <stop offset="0%" stop-color="#ffffff" stop-opacity="0.9" />
      <stop offset="100%" stop-color="#d9d9df" stop-opacity="0.4" />
    </linearGradient>
  </defs>
  <rect width="64" height="64" rx="14" fill="url(#skylive-gradient)" />
  <path d="M18 24c1.2-5.6 6.4-9.5 14-9.5 7.6 0 12.8 3.6 12.8 9 0 4.5-3 6.9-9.4 7.8l-4.2.6c-3.7.5-5.4 1.6-5.4 3.8 0 2.6 2.4 4.2 6.4 4.2 4.3 0 7.2-1.6 8-4.5h6.4c-1.3 6.5-7.3 10.4-14.8 10.4-8.3 0-13.6-3.9-13.6-10.1 0-5 3.3-8 9.9-9l4.6-.7c3.9-.6 5.7-1.7 5.7-3.8 0-2.5-2.3-4-6.1-4-4 0-6.8 1.8-7.5 4.7H18z" fill="url(#skylive-glow)" />
  <circle cx="48" cy="16" r="6" fill="#ffffff" fill-opacity="0.25" />
</svg>
